<?xml version="1.0" encoding="UTF-8"?>
<svg width="152px" height="82px" viewBox="0 0 152 82" version="1.1" xmlns="http://www.w3.org/2000/svg" xmlns:xlink="http://www.w3.org/1999/xlink">
    <title>wbk-logo-webookcom</title>
    <g id="wbk-logo-webookcom" stroke="none" stroke-width="1" fill="none" fill-rule="evenodd">
        <g id="wbk-logo@2x" transform="translate(1, 0)" fill="#FE2A77" fill-rule="nonzero">
            <path d="M0,0.705247187 C0,0.315751033 0.31549034,0 0.70466566,0 L9.4089006,0 C9.6602552,0 9.8925838,0.133998755 10.0186084,0.35165821 L16.7295316,11.942628 C17.0011504,12.4117184 17.678023,12.4114464 17.9492492,11.9421142 L23.046677,3.12097811 C23.3179938,2.65141318 23.9953194,2.65141318 24.2666664,3.12097811 L29.3599568,11.9349811 C29.632089,12.4059152 30.312042,12.4042226 30.581728,11.9319586 L37.194622,0.355218703 C37.320254,0.135552617 37.5537,0 37.806474,0 L46.608566,0 C46.997844,0 47.313434,0.315751033 47.313434,0.705247187 L47.313434,44.6319419 C47.313434,45.0215409 46.997844,45.3373911 46.608566,45.3373911 L28.9988554,45.3373911 C28.7456586,45.3373911 28.5119408,45.201379 28.3865806,44.9813417 L24.2658208,37.7427812 C23.9961952,37.2691571 23.3145208,37.2676458 23.0428416,37.740061 L18.8769328,44.9837598 C18.75118,45.202588 18.5182776,45.3373911 18.2661982,45.3373911 L0.70466566,45.3373911 C0.31549034,45.3373911 0,45.0215409 0,44.6319419 L0,0.705247187 Z M51.843434,0.705247187 C51.843434,0.315751033 52.159024,0 52.548302,0 L90.414874,0 C90.536278,0 90.65587,0.0313982272 90.76157,0.0911507321 L98.798696,4.63355283 C99.020062,4.75862346 99.156868,4.99328955 99.156868,5.24766229 L99.156868,16.216368 C99.156868,16.4684134 99.022478,16.7012962 98.804434,16.8272434 L89.745642,22.0577826 C89.275428,22.3292022 89.275428,23.008144 89.745642,23.2795334 L98.804434,28.5101029 C99.022478,28.6360501 99.156868,28.8689329 99.156868,29.1209783 L99.156868,40.0897444 C99.156868,40.3439358 99.020062,40.5787833 98.798696,40.7039143 L90.76157,45.2461118 C90.65587,45.3059571 90.536278,45.3373911 90.414874,45.3373911 L52.548302,45.3373911 C52.159024,45.3373911 51.843434,45.0215409 51.843434,44.6319419 L51.843434,0.705247187 Z M104.391132,0 C104.001854,0 103.686566,0.315751033 103.686566,0.705247187 L103.686566,44.6319419 C103.686566,45.0215409 104.001854,45.3373911 104.391132,45.3373911 L121.953942,45.3373911 C122.205206,45.3373911 122.437746,45.2031925 122.56368,44.9855733 L126.733394,37.7775398 C127.00459,37.3081472 127.681674,37.3081472 127.95287,37.7775398 L132.122584,44.9855733 C132.248518,45.2031925 132.481058,45.3373911 132.732322,45.3373911 L150.295132,45.3373911 C150.68441,45.3373911 150.999698,45.0215409 150.999698,44.6319419 L150.999698,30.5815964 C150.999698,30.3298231 150.86561,30.09691 150.647566,29.9709024 L139.070396,23.2793823 C138.600786,23.0079023 138.600786,22.3294138 139.070396,22.0579337 L150.647566,15.3664137 C150.86561,15.2404363 150.999698,15.0076441 150.999698,14.7556894 L150.999698,0.705247187 C150.999698,0.315751033 150.68441,0 150.295132,0 L132.732322,0 C132.481058,0 132.248518,0.134100311 132.122584,0.351893965 L127.95287,7.55986688 C127.681674,8.02904793 127.00459,8.02904793 126.733394,7.55986688 L122.56368,0.351893965 C122.437746,0.134100311 122.205206,0 121.953942,0 L104.391132,0 Z" id="Shape"></path>
            <path d="M50.061332,63.3212046 C50.059822,67.4197006 47.06972,69.9969775 43.888754,69.9969775 C42.582906,69.9969775 40.898048,69.4822475 39.973626,68.2599527 L39.973626,69.6729667 L35.949778,69.6729667 L35.949778,52.0657553 L39.973626,52.0657553 L39.973626,58.379434 C40.898048,57.1843416 42.582906,56.6696115 43.888754,56.6696115 C47.06972,56.6696115 50.059822,59.2196861 50.061332,63.3212046 Z M45.98252,63.3184844 C45.98252,61.7174716 44.622312,60.3860648 43.046476,60.3860648 C41.47064,60.3860648 40.11013,61.6902692 40.11013,63.3184844 C40.11013,64.9463972 41.49782,66.277804 43.046476,66.277804 C44.59483,66.277804 45.98252,64.9191948 45.98252,63.3184844 Z M24.7180054,64.5144835 L34.014864,64.5144835 C34.02181,64.3527803 34.029058,64.2019581 34.0354,64.0614123 C34.054426,63.6576077 34.069526,63.3366193 34.069526,63.0739649 C34.069526,59.2160591 31.024158,56.6650778 27.3816756,56.6650778 C23.7392536,56.6650778 20.557593,59.2432615 20.557593,63.3707734 C20.557593,67.2289814 23.3848264,69.9978843 27.408916,69.9978843 C29.5300432,69.9978843 31.705772,69.1564231 32.956958,67.7978141 L30.890372,65.1924279 C30.1025748,65.9546998 28.8784178,66.49633 27.6815616,66.49633 C26.1602668,66.49633 25.0997032,65.7367783 24.7180054,64.5144835 Z M27.4661752,60.0629607 C28.9056884,60.0629607 30.020763,60.9041196 30.0753042,62.1539191 L24.693483,62.1539191 C25.0997032,60.6317933 26.269319,60.0629607 27.4661752,60.0629607 Z M20.3113422,56.9942269 L15.962814,56.9942269 L13.8689876,64.2445751 L11.775131,56.9942269 L8.5389594,56.9942269 L6.4451028,64.2445751 L4.3512764,56.9942269 L0,56.9942269 L4.536644,69.6762913 L7.9636796,69.6762913 L10.1665884,61.8571106 L12.4785192,69.6762913 L15.9055548,69.6762913 L20.3113422,56.9942269 Z M58.164294,56.6671936 C54.549052,56.6671936 51.28564,59.3272867 51.28564,63.345989 C51.28564,67.3399069 54.549052,70 58.164294,70 C61.779234,70 65.070128,67.364389 65.070128,63.345989 C65.070128,59.3272867 61.779234,56.6671936 58.164294,56.6671936 Z M58.164294,60.3863671 C59.712648,60.3863671 60.964136,61.6089642 60.964136,63.345989 C60.964136,65.0830138 59.712648,66.2781062 58.164294,66.2781062 C56.615638,66.2781062 55.36415,65.0830138 55.36415,63.345989 C55.36415,61.6089642 56.615638,60.3863671 58.164294,60.3863671 Z M66.267256,63.345989 C66.267256,59.3272867 69.530668,56.6671936 73.14591,56.6671936 C76.76085,56.6671936 80.051744,59.3272867 80.051744,63.345989 C80.051744,67.364389 76.76085,70 73.14591,70 C69.530668,70 66.267256,67.3399069 66.267256,63.345989 Z M75.94847,63.345989 C75.94847,61.6089642 74.696982,60.3863671 73.148628,60.3863671 C71.599972,60.3863671 70.348484,61.6089642 70.348484,63.345989 C70.348484,65.0830138 71.599972,66.2781062 73.148628,66.2781062 C74.696982,66.2781062 75.94847,65.0830138 75.94847,63.345989 Z M89.92805,69.6729667 L94.821658,69.6729667 L89.003628,62.6133375 L93.788516,56.9909022 L88.731224,56.9909022 L86.012922,60.5495815 L86.012922,52.0657553 L81.988772,52.0657553 L81.988772,69.6729667 L86.012922,69.6729667 L86.012922,64.5135767 L89.92805,69.6729667 Z M95.092552,67.5010055 C95.092552,66.1423965 96.207536,65.1377209 97.540866,65.1377209 C98.873894,65.1377209 100.04354,66.1423965 100.04354,67.5010055 C100.04354,68.8596147 98.901074,69.918695 97.540866,69.918695 C96.180356,69.918695 95.092552,68.9140195 95.092552,67.5010055 Z M108.468736,56.6650778 C104.771954,56.6650778 101.454484,59.2728819 101.453578,63.2906774 C101.454484,67.3084729 104.771954,69.995164 108.468736,69.995164 C110.916748,69.995164 112.79247,68.7997693 114.016778,67.0083397 L110.889568,65.0533934 C110.398818,65.8129451 109.365676,66.2759905 108.495916,66.2759905 C106.647374,66.2759905 105.55957,64.8629765 105.55957,63.2891661 C105.55957,61.7156581 106.647374,60.3842513 108.495916,60.3842513 C109.365676,60.3842513 110.398818,60.8469945 110.889568,61.6065462 L114.016778,59.6519021 C112.79247,57.8601702 110.916748,56.6650778 108.468736,56.6650778 Z M114.834594,63.345989 C114.834594,59.3272867 118.098006,56.6671936 121.713248,56.6671936 C125.32849,56.6671936 128.619082,59.3272867 128.619082,63.345989 C128.619082,67.364389 125.32849,70 121.713248,70 C118.098006,70 114.834594,67.3399069 114.834594,63.345989 Z M124.51309,63.345989 C124.51309,61.6089642 123.261904,60.3863671 121.713248,60.3863671 C120.164592,60.3863671 118.913406,61.6089642 118.913406,63.345989 C118.913406,65.0830138 120.164592,66.2781062 121.713248,66.2781062 C123.261904,66.2781062 124.51309,65.0830138 124.51309,63.345989 Z M151,69.6732689 L151,62.8584614 C151,58.9760734 149.369804,56.6671936 146.188234,56.6671936 C144.854904,56.6671936 142.89734,57.4022631 142.02758,59.0848831 C141.267144,57.5630595 139.879454,56.6671936 138.00343,56.6671936 C136.806604,56.6671936 135.067386,57.4022631 134.576636,59.0032758 L134.576636,56.9939247 L130.552486,56.9939247 L130.552486,69.6759891 L134.576636,69.6759891 L134.576636,63.0491805 C134.576636,60.93374 135.69162,60.3890873 136.779424,60.3890873 C137.785386,60.3890873 138.764168,61.0942342 138.764168,63.0491805 L138.764168,69.6759891 L142.788318,69.6759891 L142.788318,63.4847213 C142.788318,61.2577509 143.712438,60.3890873 144.963926,60.3890873 C145.99737,60.3890873 146.976152,61.012627 146.976152,62.967271 L146.976152,69.6732689 L151,69.6732689 Z" id="Shape"></path>
        </g>
    </g>
</svg>